<?xml version="1.0" encoding="UTF-8"?>
<svg width="280" height="80" viewBox="0 0 280 80" fill="none" xmlns="http://www.w3.org/2000/svg">
    <!-- Background Shape -->
    <rect x="20" y="15" width="240" height="50" rx="25" fill="#1E293B"/>
    
    <!-- Fuel Pump Icon -->
    <path d="M45 25H55V55H45V25Z" fill="#3B82F6"/>
    <path d="M55 20H65V60H55V20Z" fill="#3B82F6"/>
    <path d="M65 25H75V55H65V25Z" fill="#3B82F6"/>
    
    <!-- Speed Lines -->
    <path d="M85 40H95M105 40H115M125 40H135" stroke="#3B82F6" stroke-width="3" stroke-linecap="round"/>
    
    <!-- Text: SPEEDEX -->
    <text x="100" y="35" font-family="Arial, sans-serif" font-size="24" font-weight="bold" fill="white">SPEEDEX</text>
    
    <!-- Text: FUEL -->
    <text x="100" y="55" font-family="Arial, sans-serif" font-size="18" fill="#3B82F6">FUEL</text>
    
    <!-- Fuel Drop -->
    <path d="M200 30C200 25 205 20 210 20C215 20 220 25 220 30C220 35 215 40 210 40C205 40 200 35 200 30Z" fill="#3B82F6"/>
    <path d="M210 40L210 50" stroke="#3B82F6" stroke-width="2"/>
</svg> 